<svg viewBox="0 0 300 401" width="300" height="401" xmlns="http://www.w3.org/2000/svg" xmlns:ns1="http://www.inkscape.org/namespaces/inkscape" xmlns:ns2="http://www.openswatchbook.org/uri/2009/osb" xmlns:ns3="http://sodipodi.sourceforge.net/DTD/sodipodi-0.dtd" version="1.1" id="glyph39"><g><defs><ns1:path-effect effect="skeletal" id="path-effect7963" is_visible="true" pattern="m -90.825902,-314.06958 23.03016,41.38503 13.798268,-41.38503 z" copytype="repeated_stretched" prop_scale="1" scale_y_rel="false" spacing="0" normal_offset="0" tang_offset="0" prop_units="false" vertical_pattern="false" fuse_tolerance="0" pattern-nodetypes="cccc" />
    <ns1:path-effect effect="skeletal" id="path-effect7830" is_visible="true" pattern="M -12.828427,33.715729 -17,-11 l 9.0000001,0 z" copytype="repeated_stretched" prop_scale="-1" scale_y_rel="false" spacing="5.1" normal_offset="0" tang_offset="0" prop_units="false" vertical_pattern="false" fuse_tolerance="0" pattern-nodetypes="cccc" />
    <linearGradient id="id0:linearGradient10055" ns2:paint="solid">
      <stop style="stop-color:#000000;stop-opacity:1;" offset="0" id="id0:stop10057" />
    </linearGradient>
    <marker ns1:stockid="Arrow1Lstart" orient="auto" refY="0" refX="0" id="id0:Arrow1Lstart" style="overflow:visible" ns1:isstock="true">
      <path id="id0:path4978" d="M 0,0 5,-5 -12.5,0 5,5 0,0 Z" style="fill:#000000;fill-opacity:1;fill-rule:evenodd;stroke:#ff5c00;stroke-width:1pt;stroke-opacity:1" transform="matrix(0.8,0,0,0.8,10,0)" ns1:connector-curvature="0" />
    </marker>
    <clipPath clipPathUnits="userSpaceOnUse" id="id0:clipPath4243">
      <circle style="opacity:1;fill:#000000;fill-opacity:0.29670332;fill-rule:nonzero;stroke:#000000;stroke-width:19.13299942;stroke-linecap:butt;stroke-linejoin:round;stroke-miterlimit:4;stroke-dasharray:none;stroke-dashoffset:0;stroke-opacity:1" id="id0:circle4245" cx="-264.65997" cy="-198.20665" r="293.95438" />
    </clipPath>
    <clipPath clipPathUnits="userSpaceOnUse" id="id0:clipPath7847">
      <ellipse style="opacity:1;fill:#822600;fill-opacity:1;fill-rule:nonzero;stroke:none;stroke-width:12;stroke-linecap:round;stroke-linejoin:round;stroke-miterlimit:4;stroke-dasharray:none;stroke-dashoffset:0;stroke-opacity:1" id="id0:ellipse7849" cx="394" cy="552.36218" rx="349.49533" ry="216" />
    </clipPath>
    <clipPath clipPathUnits="userSpaceOnUse" id="id0:clipPath4243-1">
      <circle style="opacity:1;fill:#000000;fill-opacity:0.29670332;fill-rule:nonzero;stroke:#000000;stroke-width:19.13299942;stroke-linecap:butt;stroke-linejoin:round;stroke-miterlimit:4;stroke-dasharray:none;stroke-dashoffset:0;stroke-opacity:1" id="id0:circle4245-4" cx="-264.65997" cy="-198.20665" r="293.95438" />
    </clipPath>
    <clipPath clipPathUnits="userSpaceOnUse" id="id0:clipPath7876">
      <circle style="opacity:1;fill:#000000;fill-opacity:0.29670332;fill-rule:nonzero;stroke:#000000;stroke-width:19.13299942;stroke-linecap:butt;stroke-linejoin:round;stroke-miterlimit:4;stroke-dasharray:none;stroke-dashoffset:0;stroke-opacity:1" id="id0:circle7878" cx="-264.65997" cy="-198.20665" r="293.95438" />
    </clipPath>
    <clipPath clipPathUnits="userSpaceOnUse" id="id0:clipPath14693">
      <rect style="opacity:1;fill:#a53c3c;fill-opacity:1;fill-rule:nonzero;stroke:none;stroke-width:8;stroke-linecap:round;stroke-linejoin:round;stroke-miterlimit:4;stroke-dasharray:none;stroke-dashoffset:0;stroke-opacity:1" id="id0:rect14695" width="131.78395" height="168.82127" x="-332.59583" y="383.49765" rx="1.2551664" ry="3.7514515" transform="matrix(0.99939083,-0.03489951,0.03489951,0.99939083,0,0)" />
    </clipPath>
    <clipPath clipPathUnits="userSpaceOnUse" id="id0:clipPath14952">
      <ellipse style="opacity:1;fill:#a53c3c;fill-opacity:1;fill-rule:nonzero;stroke:none;stroke-width:7;stroke-linecap:round;stroke-linejoin:round;stroke-miterlimit:4;stroke-dasharray:none;stroke-dashoffset:0;stroke-opacity:1" id="id0:ellipse14954" cx="-271.34384" cy="647.25604" rx="69.057365" ry="116.91089" transform="matrix(0.99939083,-0.03489951,0.03489951,0.99939083,0,0)" />
    </clipPath>
    <pattern y="0" x="0" height="6" width="6" patternUnits="userSpaceOnUse" id="id0:EMFhbasepattern" />
    <filter style="color-interpolation-filters:sRGB;" ns1:label="Blur" id="id0:filter4198">
      <feGaussianBlur stdDeviation="2.51 2.51" result="blur" id="id0:feGaussianBlur4200" />
    </filter>
    <mask maskUnits="userSpaceOnUse" id="id0:mask4222">
      <rect ry="40" y="652.28351" x="0" height="400.77808" width="300.05896" id="id0:rect4224" style="opacity:1;fill:#ff3737;fill-opacity:1;fill-rule:nonzero;stroke:none;stroke-width:10;stroke-linecap:butt;stroke-linejoin:round;stroke-miterlimit:4;stroke-dasharray:none;stroke-dashoffset:0;stroke-opacity:1" />
    </mask>
    <filter style="color-interpolation-filters:sRGB" ns1:label="Blur" id="id0:filter4198-0">
      <feGaussianBlur stdDeviation="2.51 2.51" result="blur" id="id0:feGaussianBlur4200-5" />
    </filter>
    <mask maskUnits="userSpaceOnUse" id="id0:mask4216">
      <rect ry="40" y="-1325.6035" x="-451.93805" height="400.77808" width="300.05896" id="id0:rect4218" style="opacity:1;fill:#ff3737;fill-opacity:1;fill-rule:nonzero;stroke:none;stroke-width:10;stroke-linecap:butt;stroke-linejoin:round;stroke-miterlimit:4;stroke-dasharray:none;stroke-dashoffset:0;stroke-opacity:1" transform="scale(-1,-1)" />
    </mask>
    <filter style="color-interpolation-filters:sRGB" ns1:label="Blur" id="id0:filter4242">
      <feGaussianBlur stdDeviation="2.51 2.51" result="blur" id="id0:feGaussianBlur4244" />
    </filter>
    <mask maskUnits="userSpaceOnUse" id="id0:mask4222-0">
      <rect ry="40" y="652.28351" x="0" height="400.77808" width="300.05896" id="id0:rect4224-8" style="opacity:1;fill:#ff3737;fill-opacity:1;fill-rule:nonzero;stroke:none;stroke-width:10;stroke-linecap:butt;stroke-linejoin:round;stroke-miterlimit:4;stroke-dasharray:none;stroke-dashoffset:0;stroke-opacity:1" />
    </mask>
    <filter style="color-interpolation-filters:sRGB" ns1:label="Blur" id="id0:filter4198-8">
      <feGaussianBlur stdDeviation="2.51 2.51" result="blur" id="id0:feGaussianBlur4200-3" />
    </filter>
    <mask maskUnits="userSpaceOnUse" id="id0:mask4216-0">
      <rect ry="40" y="-1325.6035" x="-451.93805" height="400.77808" width="300.05896" id="id0:rect4218-5" style="opacity:1;fill:#ff3737;fill-opacity:1;fill-rule:nonzero;stroke:none;stroke-width:10;stroke-linecap:butt;stroke-linejoin:round;stroke-miterlimit:4;stroke-dasharray:none;stroke-dashoffset:0;stroke-opacity:1" transform="scale(-1,-1)" />
    </mask>
    <filter style="color-interpolation-filters:sRGB" ns1:label="Blur" id="id0:filter4242-2">
      <feGaussianBlur stdDeviation="2.51 2.51" result="blur" id="id0:feGaussianBlur4244-2" />
    </filter>
  </defs>
  <g id="id0:id0" transform="matrix(1.0,0,0,1.0,0.0,0.0)"><ns3:namedview id="base" pagecolor="#aeffff" bordercolor="#666666" borderopacity="1" ns1:pageopacity="0" ns1:pageshadow="2" ns1:zoom="0.50548195" ns1:cx="314.366" ns1:cy="374.8318" ns1:document-units="px" ns1:current-layer="layer1" showgrid="true" ns1:window-width="1920" ns1:window-height="1017" ns1:window-x="-8" ns1:window-y="-8" ns1:window-maximized="1" showguides="true" ns1:guide-bbox="true" units="px">
    <ns1:grid type="xygrid" id="grid4774" visible="true" dotted="false" color="#3f3fff" opacity="0.03921569" empcolor="#3f3fff" empopacity="0.07843137" enabled="false" />
    <ns3:guide position="150,200" orientation="0,1" id="guide8231" ns1:label="" ns1:color="rgb(0,0,255)" />
    <ns3:guide position="150,200" orientation="1,0" id="guide8233" ns1:label="" ns1:color="rgb(0,0,255)" />
  </ns3:namedview>
  <g ns1:label="Layer 1" ns1:groupmode="layer" id="id0:layer1" transform="translate(0,-652.36216)">
    <rect style="opacity:1;fill:#f5f0eb;fill-opacity:1;fill-rule:nonzero;stroke:none;stroke-width:10;stroke-linecap:butt;stroke-linejoin:round;stroke-miterlimit:4;stroke-dasharray:none;stroke-dashoffset:0;stroke-opacity:1" id="id0:rect4164" width="300.05896" height="400.77808" x="0" y="652.28351" ry="40" />
    <path transform="translate(-1.3432789e-7,-1.3368765e-6)" style="fill:#ffffff;fill-opacity:1;fill-rule:evenodd;stroke:none;stroke-width:1px;stroke-linecap:butt;stroke-linejoin:miter;stroke-opacity:1;filter:url(#id0:filter4198-8)" d="M -4.7687833,775.07096 C -9.6501835,741.99485 -16.84552,674.23676 -1.2788716,652.0641 18.998297,625.94378 233.50094,631.63117 263.31435,653.90999 276.21398,662.64856 70.349579,663.12124 47.099353,691.74479 24.390958,719.11242 0.65060847,818.18718 -4.7687833,775.07096 Z" id="id0:path4166" ns1:connector-curvature="0" ns3:nodetypes="ccccc" mask="url(#id0:mask4222-0)" />
    <path ns3:nodetypes="ccccc" ns1:connector-curvature="0" id="id0:path4221" d="m 151.73588,1025.0177 c -3.32683,-9.3138 -10.24843,-68.45389 5.31821,-90.62655 20.27717,-26.12032 219.43558,-16.45796 231.55506,-9.93184 11.07433,5.31702 -178.60366,0.0589 -204.85126,34.86646 -21.59349,30.0006 -26.50086,82.17843 -32.02201,65.69193 z" style="fill:#000000;fill-opacity:0.19607843;fill-rule:evenodd;stroke:none;stroke-width:1px;stroke-linecap:butt;stroke-linejoin:miter;stroke-opacity:1;filter:url(#id0:filter4198-8)" transform="matrix(-1,0,0,-1,451.93806,1977.887)" mask="url(#id0:mask4216-0)" />
  </g>
</g>
  <g id="id1:id1" transform="matrix(1.0,0,0,1.0,31.5,42.0)"><g id="id1:surface1">
<path style=" stroke:none;fill-rule:nonzero;fill:rgb(0%,0%,0%);fill-opacity:1;" d="M 125.535156 51.949219 C 125.535156 78.617188 103.917969 100.234375 77.25 100.234375 C 50.585938 100.234375 28.96875 78.617188 28.96875 51.949219 C 28.96875 25.285156 50.585938 3.667969 77.25 3.667969 C 103.917969 3.667969 125.535156 25.285156 125.535156 51.949219 Z M 125.535156 51.949219 " />
<path style=" stroke:none;fill-rule:nonzero;fill:rgb(0%,0%,0%);fill-opacity:1;" d="M 125.535156 123.050781 C 125.535156 149.714844 103.917969 171.332031 77.25 171.332031 C 50.585938 171.332031 28.96875 149.714844 28.96875 123.050781 C 28.96875 96.382812 50.585938 74.765625 77.25 74.765625 C 103.917969 74.765625 125.535156 96.382812 125.535156 123.050781 Z M 125.535156 123.050781 " />
<path style=" stroke:none;fill-rule:nonzero;fill:rgb(0%,0%,0%);fill-opacity:1;" d="M 125.535156 192.964844 C 125.535156 219.632812 103.917969 241.25 77.25 241.25 C 50.585938 241.25 28.96875 219.632812 28.96875 192.964844 C 28.96875 166.300781 50.585938 144.683594 77.25 144.683594 C 103.917969 144.683594 125.535156 166.300781 125.535156 192.964844 Z M 125.535156 192.964844 " />
<path style=" stroke:none;fill-rule:nonzero;fill:rgb(0%,0%,0%);fill-opacity:1;" d="M 125.535156 264.066406 C 125.535156 290.730469 103.917969 312.347656 77.25 312.347656 C 50.585938 312.347656 28.96875 290.730469 28.96875 264.066406 C 28.96875 237.398438 50.585938 215.78125 77.25 215.78125 C 103.917969 215.78125 125.535156 237.398438 125.535156 264.066406 Z M 125.535156 264.066406 " />
<path style=" stroke:none;fill-rule:nonzero;fill:rgb(0%,0%,0%);fill-opacity:1;" d="M 208.03125 51.949219 C 208.03125 78.617188 186.414062 100.234375 159.75 100.234375 C 133.082031 100.234375 111.464844 78.617188 111.464844 51.949219 C 111.464844 25.285156 133.082031 3.667969 159.75 3.667969 C 186.414062 3.667969 208.03125 25.285156 208.03125 51.949219 Z M 208.03125 51.949219 " />
<path style=" stroke:none;fill-rule:nonzero;fill:rgb(0%,0%,0%);fill-opacity:1;" d="M 208.03125 123.050781 C 208.03125 149.714844 186.414062 171.332031 159.75 171.332031 C 133.082031 171.332031 111.464844 149.714844 111.464844 123.050781 C 111.464844 96.382812 133.082031 74.765625 159.75 74.765625 C 186.414062 74.765625 208.03125 96.382812 208.03125 123.050781 Z M 208.03125 123.050781 " />
<path style=" stroke:none;fill-rule:nonzero;fill:rgb(0%,0%,0%);fill-opacity:1;" d="M 208.03125 192.964844 C 208.03125 219.632812 186.414062 241.25 159.75 241.25 C 133.082031 241.25 111.464844 219.632812 111.464844 192.964844 C 111.464844 166.300781 133.082031 144.683594 159.75 144.683594 C 186.414062 144.683594 208.03125 166.300781 208.03125 192.964844 Z M 208.03125 192.964844 " />
<path style=" stroke:none;fill-rule:nonzero;fill:rgb(0%,0%,0%);fill-opacity:1;" d="M 208.03125 264.066406 C 208.03125 290.730469 186.414062 312.347656 159.75 312.347656 C 133.082031 312.347656 111.464844 290.730469 111.464844 264.066406 C 111.464844 237.398438 133.082031 215.78125 159.75 215.78125 C 186.414062 215.78125 208.03125 237.398438 208.03125 264.066406 Z M 208.03125 264.066406 " />
<path style=" stroke:none;fill-rule:nonzero;fill:rgb(100%,100%,100%);fill-opacity:1;" d="M 113.664062 51.949219 C 113.664062 72.0625 97.363281 88.363281 77.25 88.363281 C 57.140625 88.363281 40.835938 72.0625 40.835938 51.949219 C 40.835938 31.839844 57.140625 15.535156 77.25 15.535156 C 97.363281 15.535156 113.664062 31.839844 113.664062 51.949219 Z M 113.664062 51.949219 " />
<path style=" stroke:none;fill-rule:nonzero;fill:rgb(0%,0%,21.568628%);fill-opacity:1;" d="M 108.609375 51.949219 C 108.609375 69.269531 94.570312 83.308594 77.25 83.308594 C 59.933594 83.308594 45.894531 69.269531 45.894531 51.949219 C 45.894531 34.632812 59.933594 20.59375 77.25 20.59375 C 94.570312 20.59375 108.609375 34.632812 108.609375 51.949219 Z M 108.609375 51.949219 " />
<path style="fill:none;stroke-width:6.750449;stroke-linecap:round;stroke-linejoin:round;stroke:rgb(100%,100%,100%);stroke-opacity:1;stroke-dasharray:13.500898,13.500898;stroke-miterlimit:4;" d="M 114.382895 -718.776609 C 114.38471 -707.03287 104.981547 -697.454394 93.239308 -697.23502 C 81.502046 -697.010736 71.746795 -706.234671 71.304987 -717.965488 C 70.863144 -729.70125 79.897995 -739.628265 91.622335 -740.292541 C 103.346708 -740.951873 113.440541 -732.106072 114.322274 -720.398066 " transform="matrix(0.789981,-0.0054441,-0.0054441,-0.789981,-0.000000181106,-515.365307)" />
<path style=" stroke:none;fill-rule:nonzero;fill:rgb(100%,100%,100%);fill-opacity:1;" d="M 83.597656 51.949219 C 83.597656 55.453125 80.753906 58.296875 77.25 58.296875 C 73.746094 58.296875 70.90625 55.453125 70.90625 51.949219 C 70.90625 48.445312 73.746094 45.605469 77.25 45.605469 C 80.753906 45.605469 83.597656 48.445312 83.597656 51.949219 Z M 83.597656 51.949219 " />
<path style=" stroke:none;fill-rule:nonzero;fill:rgb(0%,0%,21.568628%);fill-opacity:1;" d="M 80.148438 51.949219 C 80.148438 53.550781 78.851562 54.847656 77.25 54.847656 C 75.652344 54.847656 74.351562 53.550781 74.351562 51.949219 C 74.351562 50.351562 75.652344 49.054688 77.25 49.054688 C 78.851562 49.054688 80.148438 50.351562 80.148438 51.949219 Z M 80.148438 51.949219 " />
<path style=" stroke:none;fill-rule:nonzero;fill:rgb(100%,100%,100%);fill-opacity:1;" d="M 113.664062 123.050781 C 113.664062 143.160156 97.363281 159.464844 77.25 159.464844 C 57.140625 159.464844 40.835938 143.160156 40.835938 123.050781 C 40.835938 102.9375 57.140625 86.636719 77.25 86.636719 C 97.363281 86.636719 113.664062 102.9375 113.664062 123.050781 Z M 113.664062 123.050781 " />
<path style=" stroke:none;fill-rule:nonzero;fill:rgb(0%,0%,21.568628%);fill-opacity:1;" d="M 108.609375 123.050781 C 108.609375 140.367188 94.570312 154.40625 77.25 154.40625 C 59.933594 154.40625 45.894531 140.367188 45.894531 123.050781 C 45.894531 105.730469 59.933594 91.691406 77.25 91.691406 C 94.570312 91.691406 108.609375 105.730469 108.609375 123.050781 Z M 108.609375 123.050781 " />
<path style="fill:none;stroke-width:6.750449;stroke-linecap:round;stroke-linejoin:round;stroke:rgb(100%,100%,100%);stroke-opacity:1;stroke-dasharray:13.500898,13.500898;stroke-miterlimit:4;" d="M 113.762667 -808.776448 C 113.764483 -797.032709 104.36132 -787.454233 92.619114 -787.229915 C 80.881818 -787.010575 71.126601 -796.229565 70.684759 -807.965327 C 70.242917 -819.701089 79.277767 -829.628103 91.002141 -830.287435 C 102.72648 -830.951712 112.820313 -822.105911 113.70208 -810.39296 " transform="matrix(0.789981,-0.0054441,-0.0054441,-0.789981,-0.000000181106,-515.365307)" />
<path style=" stroke:none;fill-rule:nonzero;fill:rgb(100%,100%,100%);fill-opacity:1;" d="M 83.597656 123.050781 C 83.597656 126.554688 80.753906 129.394531 77.25 129.394531 C 73.746094 129.394531 70.90625 126.554688 70.90625 123.050781 C 70.90625 119.546875 73.746094 116.707031 77.25 116.707031 C 80.753906 116.707031 83.597656 119.546875 83.597656 123.050781 Z M 83.597656 123.050781 " />
<path style=" stroke:none;fill-rule:nonzero;fill:rgb(0%,0%,21.568628%);fill-opacity:1;" d="M 80.148438 123.050781 C 80.148438 124.652344 78.851562 125.949219 77.25 125.949219 C 75.652344 125.949219 74.351562 124.652344 74.351562 123.050781 C 74.351562 121.449219 75.652344 120.152344 77.25 120.152344 C 78.851562 120.152344 80.148438 121.449219 80.148438 123.050781 Z M 80.148438 123.050781 " />
<path style=" stroke:none;fill-rule:nonzero;fill:rgb(100%,100%,100%);fill-opacity:1;" d="M 113.664062 192.964844 C 113.664062 213.078125 97.363281 229.378906 77.25 229.378906 C 57.140625 229.378906 40.835938 213.078125 40.835938 192.964844 C 40.835938 172.855469 57.140625 156.550781 77.25 156.550781 C 97.363281 156.550781 113.664062 172.855469 113.664062 192.964844 Z M 113.664062 192.964844 " />
<path style=" stroke:none;fill-rule:nonzero;fill:rgb(0%,0%,21.568628%);fill-opacity:1;" d="M 108.609375 192.964844 C 108.609375 210.285156 94.570312 224.324219 77.25 224.324219 C 59.933594 224.324219 45.894531 210.285156 45.894531 192.964844 C 45.894531 175.648438 59.933594 161.609375 77.25 161.609375 C 94.570312 161.609375 108.609375 175.648438 108.609375 192.964844 Z M 108.609375 192.964844 " />
<path style="fill:none;stroke-width:6.750449;stroke-linecap:round;stroke-linejoin:round;stroke:rgb(100%,100%,100%);stroke-opacity:1;stroke-dasharray:13.500898,13.500898;stroke-miterlimit:4;" d="M 113.152798 -897.273158 C 113.154613 -885.529419 103.75145 -875.950942 92.00921 -875.731569 C 80.271949 -875.507285 70.516697 -884.731219 70.074889 -896.462037 C 69.633047 -908.197799 78.667898 -918.124813 90.392237 -918.78909 C 102.116611 -919.448422 112.210444 -910.602621 113.092176 -898.894614 " transform="matrix(0.789981,-0.0054441,-0.0054441,-0.789981,-0.000000181106,-515.365307)" />
<path style=" stroke:none;fill-rule:nonzero;fill:rgb(100%,100%,100%);fill-opacity:1;" d="M 83.597656 192.964844 C 83.597656 196.46875 80.753906 199.308594 77.25 199.308594 C 73.746094 199.308594 70.90625 196.46875 70.90625 192.964844 C 70.90625 189.460938 73.746094 186.621094 77.25 186.621094 C 80.753906 186.621094 83.597656 189.460938 83.597656 192.964844 Z M 83.597656 192.964844 " />
<path style=" stroke:none;fill-rule:nonzero;fill:rgb(0%,0%,21.568628%);fill-opacity:1;" d="M 80.148438 192.964844 C 80.148438 194.566406 78.851562 195.863281 77.25 195.863281 C 75.652344 195.863281 74.351562 194.566406 74.351562 192.964844 C 74.351562 191.363281 75.652344 190.066406 77.25 190.066406 C 78.851562 190.066406 80.148438 191.363281 80.148438 192.964844 Z M 80.148438 192.964844 " />
<path style=" stroke:none;fill-rule:nonzero;fill:rgb(100%,100%,100%);fill-opacity:1;" d="M 113.664062 264.066406 C 113.664062 284.175781 97.363281 300.480469 77.25 300.480469 C 57.140625 300.480469 40.835938 284.175781 40.835938 264.066406 C 40.835938 243.953125 57.140625 227.652344 77.25 227.652344 C 97.363281 227.652344 113.664062 243.953125 113.664062 264.066406 Z M 113.664062 264.066406 " />
<path style=" stroke:none;fill-rule:nonzero;fill:rgb(0%,0%,21.568628%);fill-opacity:1;" d="M 108.609375 264.066406 C 108.609375 281.382812 94.570312 295.421875 77.25 295.421875 C 59.933594 295.421875 45.894531 281.382812 45.894531 264.066406 C 45.894531 246.746094 59.933594 232.707031 77.25 232.707031 C 94.570312 232.707031 108.609375 246.746094 108.609375 264.066406 Z M 108.609375 264.066406 " />
<path style="fill:none;stroke-width:6.750449;stroke-linecap:round;stroke-linejoin:round;stroke:rgb(100%,100%,100%);stroke-opacity:1;stroke-dasharray:13.500898,13.500898;stroke-miterlimit:4;" d="M 112.53257 -987.272997 C 112.534385 -975.529258 103.131257 -965.945837 91.389017 -965.726463 C 79.651721 -965.507124 69.896504 -974.726113 69.454662 -986.461875 C 69.012819 -998.197637 78.04767 -1008.124652 89.772044 -1008.783984 C 101.496383 -1009.448261 111.59025 -1000.597515 112.471983 -988.889508 " transform="matrix(0.789981,-0.0054441,-0.0054441,-0.789981,-0.000000181106,-515.365307)" />
<path style=" stroke:none;fill-rule:nonzero;fill:rgb(100%,100%,100%);fill-opacity:1;" d="M 83.597656 264.066406 C 83.597656 267.570312 80.753906 270.410156 77.25 270.410156 C 73.746094 270.410156 70.90625 267.570312 70.90625 264.066406 C 70.90625 260.5625 73.746094 257.71875 77.25 257.71875 C 80.753906 257.71875 83.597656 260.5625 83.597656 264.066406 Z M 83.597656 264.066406 " />
<path style=" stroke:none;fill-rule:nonzero;fill:rgb(0%,0%,21.568628%);fill-opacity:1;" d="M 80.148438 264.066406 C 80.148438 265.664062 78.851562 266.960938 77.25 266.960938 C 75.652344 266.960938 74.351562 265.664062 74.351562 264.066406 C 74.351562 262.464844 75.652344 261.167969 77.25 261.167969 C 78.851562 261.167969 80.148438 262.464844 80.148438 264.066406 Z M 80.148438 264.066406 " />
<path style=" stroke:none;fill-rule:nonzero;fill:rgb(100%,100%,100%);fill-opacity:1;" d="M 196.164062 51.949219 C 196.164062 72.0625 179.859375 88.363281 159.75 88.363281 C 139.636719 88.363281 123.335938 72.0625 123.335938 51.949219 C 123.335938 31.839844 139.636719 15.535156 159.75 15.535156 C 179.859375 15.535156 196.164062 31.839844 196.164062 51.949219 Z M 196.164062 51.949219 " />
<path style=" stroke:none;fill-rule:nonzero;fill:rgb(0%,0%,21.568628%);fill-opacity:1;" d="M 191.105469 51.949219 C 191.105469 69.269531 177.066406 83.308594 159.75 83.308594 C 142.429688 83.308594 128.390625 69.269531 128.390625 51.949219 C 128.390625 34.632812 142.429688 20.59375 159.75 20.59375 C 177.066406 20.59375 191.105469 34.632812 191.105469 51.949219 Z M 191.105469 51.949219 " />
<path style="fill:none;stroke-width:6.750449;stroke-linecap:round;stroke-linejoin:round;stroke:rgb(100%,100%,100%);stroke-opacity:1;stroke-dasharray:13.500898,13.500898;stroke-miterlimit:4;" d="M 218.810793 -719.496267 C 218.807664 -707.752494 209.409445 -698.174052 197.667205 -697.954678 C 185.924999 -697.73036 176.169748 -706.954294 175.72794 -718.685112 C 175.286098 -730.420874 184.320948 -740.347889 196.045288 -741.012165 C 207.769662 -741.671497 217.868439 -732.82573 218.750171 -721.117723 " transform="matrix(0.789981,-0.0054441,-0.0054441,-0.789981,-0.000000181106,-515.365307)" />
<path style=" stroke:none;fill-rule:nonzero;fill:rgb(100%,100%,100%);fill-opacity:1;" d="M 166.09375 51.949219 C 166.09375 55.453125 163.253906 58.296875 159.75 58.296875 C 156.246094 58.296875 153.402344 55.453125 153.402344 51.949219 C 153.402344 48.445312 156.246094 45.605469 159.75 45.605469 C 163.253906 45.605469 166.09375 48.445312 166.09375 51.949219 Z M 166.09375 51.949219 " />
<path style=" stroke:none;fill-rule:nonzero;fill:rgb(0%,0%,21.568628%);fill-opacity:1;" d="M 162.644531 51.949219 C 162.644531 53.550781 161.347656 54.847656 159.75 54.847656 C 158.148438 54.847656 156.851562 53.550781 156.851562 51.949219 C 156.851562 50.351562 158.148438 49.054688 159.75 49.054688 C 161.347656 49.054688 162.644531 50.351562 162.644531 51.949219 Z M 162.644531 51.949219 " />
<path style=" stroke:none;fill-rule:nonzero;fill:rgb(100%,100%,100%);fill-opacity:1;" d="M 196.164062 123.050781 C 196.164062 143.160156 179.859375 159.464844 159.75 159.464844 C 139.636719 159.464844 123.335938 143.160156 123.335938 123.050781 C 123.335938 102.9375 139.636719 86.636719 159.75 86.636719 C 179.859375 86.636719 196.164062 102.9375 196.164062 123.050781 Z M 196.164062 123.050781 " />
<path style=" stroke:none;fill-rule:nonzero;fill:rgb(0%,0%,21.568628%);fill-opacity:1;" d="M 191.105469 123.050781 C 191.105469 140.367188 177.066406 154.40625 159.75 154.40625 C 142.429688 154.40625 128.390625 140.367188 128.390625 123.050781 C 128.390625 105.730469 142.429688 91.691406 159.75 91.691406 C 177.066406 91.691406 191.105469 105.730469 191.105469 123.050781 Z M 191.105469 123.050781 " />
<path style="fill:none;stroke-width:6.750449;stroke-linecap:round;stroke-linejoin:round;stroke:rgb(100%,100%,100%);stroke-opacity:1;stroke-dasharray:13.500898,13.500898;stroke-miterlimit:4;" d="M 218.190565 -809.496106 C 218.187436 -797.752333 208.789217 -788.173891 197.047011 -787.949572 C 185.304772 -787.730199 175.549554 -796.949189 175.107712 -808.684951 C 174.66587 -820.420713 183.70072 -830.347727 195.425094 -831.007059 C 207.149434 -831.671336 217.248211 -822.825569 218.129977 -811.112618 " transform="matrix(0.789981,-0.0054441,-0.0054441,-0.789981,-0.000000181106,-515.365307)" />
<path style=" stroke:none;fill-rule:nonzero;fill:rgb(100%,100%,100%);fill-opacity:1;" d="M 166.09375 123.050781 C 166.09375 126.554688 163.253906 129.394531 159.75 129.394531 C 156.246094 129.394531 153.402344 126.554688 153.402344 123.050781 C 153.402344 119.546875 156.246094 116.707031 159.75 116.707031 C 163.253906 116.707031 166.09375 119.546875 166.09375 123.050781 Z M 166.09375 123.050781 " />
<path style=" stroke:none;fill-rule:nonzero;fill:rgb(0%,0%,21.568628%);fill-opacity:1;" d="M 162.644531 123.050781 C 162.644531 124.652344 161.347656 125.949219 159.75 125.949219 C 158.148438 125.949219 156.851562 124.652344 156.851562 123.050781 C 156.851562 121.449219 158.148438 120.152344 159.75 120.152344 C 161.347656 120.152344 162.644531 121.449219 162.644531 123.050781 Z M 162.644531 123.050781 " />
<path style=" stroke:none;fill-rule:nonzero;fill:rgb(100%,100%,100%);fill-opacity:1;" d="M 196.164062 192.964844 C 196.164062 213.078125 179.859375 229.378906 159.75 229.378906 C 139.636719 229.378906 123.335938 213.078125 123.335938 192.964844 C 123.335938 172.855469 139.636719 156.550781 159.75 156.550781 C 179.859375 156.550781 196.164062 172.855469 196.164062 192.964844 Z M 196.164062 192.964844 " />
<path style=" stroke:none;fill-rule:nonzero;fill:rgb(0%,0%,21.568628%);fill-opacity:1;" d="M 191.105469 192.964844 C 191.105469 210.285156 177.066406 224.324219 159.75 224.324219 C 142.429688 224.324219 128.390625 210.285156 128.390625 192.964844 C 128.390625 175.648438 142.429688 161.609375 159.75 161.609375 C 177.066406 161.609375 191.105469 175.648438 191.105469 192.964844 Z M 191.105469 192.964844 " />
<path style="fill:none;stroke-width:6.750449;stroke-linecap:round;stroke-linejoin:round;stroke:rgb(100%,100%,100%);stroke-opacity:1;stroke-dasharray:13.500898,13.500898;stroke-miterlimit:4;" d="M 217.580696 -897.992816 C 217.577567 -886.249043 208.179348 -876.6706 196.437108 -876.451227 C 184.694902 -876.226909 174.939651 -885.450843 174.497843 -897.181661 C 174.056001 -908.917423 183.090851 -918.844437 194.815191 -919.508714 C 206.539564 -920.168046 216.638342 -911.322279 217.520074 -899.614272 " transform="matrix(0.789981,-0.0054441,-0.0054441,-0.789981,-0.000000181106,-515.365307)" />
<path style=" stroke:none;fill-rule:nonzero;fill:rgb(100%,100%,100%);fill-opacity:1;" d="M 166.09375 192.964844 C 166.09375 196.46875 163.253906 199.308594 159.75 199.308594 C 156.246094 199.308594 153.402344 196.46875 153.402344 192.964844 C 153.402344 189.460938 156.246094 186.621094 159.75 186.621094 C 163.253906 186.621094 166.09375 189.460938 166.09375 192.964844 Z M 166.09375 192.964844 " />
<path style=" stroke:none;fill-rule:nonzero;fill:rgb(0%,0%,21.568628%);fill-opacity:1;" d="M 162.644531 192.964844 C 162.644531 194.566406 161.347656 195.863281 159.75 195.863281 C 158.148438 195.863281 156.851562 194.566406 156.851562 192.964844 C 156.851562 191.363281 158.148438 190.066406 159.75 190.066406 C 161.347656 190.066406 162.644531 191.363281 162.644531 192.964844 Z M 162.644531 192.964844 " />
<path style=" stroke:none;fill-rule:nonzero;fill:rgb(100%,100%,100%);fill-opacity:1;" d="M 196.164062 264.066406 C 196.164062 284.175781 179.859375 300.480469 159.75 300.480469 C 139.636719 300.480469 123.335938 284.175781 123.335938 264.066406 C 123.335938 243.953125 139.636719 227.652344 159.75 227.652344 C 179.859375 227.652344 196.164062 243.953125 196.164062 264.066406 Z M 196.164062 264.066406 " />
<path style=" stroke:none;fill-rule:nonzero;fill:rgb(0%,0%,21.568628%);fill-opacity:1;" d="M 191.105469 264.066406 C 191.105469 281.382812 177.066406 295.421875 159.75 295.421875 C 142.429688 295.421875 128.390625 281.382812 128.390625 264.066406 C 128.390625 246.746094 142.429688 232.707031 159.75 232.707031 C 177.066406 232.707031 191.105469 246.746094 191.105469 264.066406 Z M 191.105469 264.066406 " />
<path style="fill:none;stroke-width:6.750449;stroke-linecap:round;stroke-linejoin:round;stroke:rgb(100%,100%,100%);stroke-opacity:1;stroke-dasharray:13.500898,13.500898;stroke-miterlimit:4;" d="M 216.960468 -987.992655 C 216.957339 -976.248881 207.559154 -966.665495 195.816914 -966.446121 C 184.074674 -966.226748 174.319457 -975.445737 173.877615 -987.181499 C 173.435773 -998.917261 182.470623 -1008.844276 194.194997 -1009.503608 C 205.919337 -1010.167884 216.018148 -1001.317173 216.89988 -989.609166 " transform="matrix(0.789981,-0.0054441,-0.0054441,-0.789981,-0.000000181106,-515.365307)" />
<path style=" stroke:none;fill-rule:nonzero;fill:rgb(100%,100%,100%);fill-opacity:1;" d="M 166.09375 264.066406 C 166.09375 267.570312 163.253906 270.410156 159.75 270.410156 C 156.246094 270.410156 153.402344 267.570312 153.402344 264.066406 C 153.402344 260.5625 156.246094 257.71875 159.75 257.71875 C 163.253906 257.71875 166.09375 260.5625 166.09375 264.066406 Z M 166.09375 264.066406 " />
<path style=" stroke:none;fill-rule:nonzero;fill:rgb(0%,0%,21.568628%);fill-opacity:1;" d="M 162.644531 264.066406 C 162.644531 265.664062 161.347656 266.960938 159.75 266.960938 C 158.148438 266.960938 156.851562 265.664062 156.851562 264.066406 C 156.851562 262.464844 158.148438 261.167969 159.75 261.167969 C 161.347656 261.167969 162.644531 262.464844 162.644531 264.066406 Z M 162.644531 264.066406 " />
</g>
</g>
</g></svg>